<svg id="visual" viewBox="0 0 2560 450" width="2560" height="450" xmlns="http://www.w3.org/2000/svg" xmlns:xlink="http://www.w3.org/1999/xlink" version="1.1"><path d="M0 55L23.7 57.3C47.3 59.7 94.7 64.3 142 62.2C189.3 60 236.7 51 284.2 42.7C331.7 34.3 379.3 26.7 426.8 30.3C474.3 34 521.7 49 569 55.8C616.3 62.7 663.7 61.3 711 59.8C758.3 58.3 805.7 56.7 853.2 55.2C900.7 53.7 948.3 52.3 995.8 47.2C1043.3 42 1090.7 33 1138 30C1185.3 27 1232.7 30 1280 39C1327.3 48 1374.7 63 1422 63.7C1469.3 64.3 1516.7 50.7 1564.2 43.2C1611.7 35.7 1659.3 34.3 1706.8 32.2C1754.3 30 1801.7 27 1849 33C1896.3 39 1943.7 54 1991 57C2038.3 60 2085.7 51 2133.2 45.7C2180.7 40.3 2228.3 38.7 2275.8 37.2C2323.3 35.7 2370.7 34.3 2418 32.2C2465.3 30 2512.7 27 2536.3 25.5L2560 24L2560 0L2536.3 0C2512.7 0 2465.3 0 2418 0C2370.7 0 2323.3 0 2275.8 0C2228.3 0 2180.7 0 2133.2 0C2085.7 0 2038.3 0 1991 0C1943.7 0 1896.3 0 1849 0C1801.7 0 1754.3 0 1706.8 0C1659.3 0 1611.7 0 1564.2 0C1516.7 0 1469.3 0 1422 0C1374.7 0 1327.3 0 1280 0C1232.7 0 1185.3 0 1138 0C1090.7 0 1043.3 0 995.8 0C948.3 0 900.7 0 853.2 0C805.7 0 758.3 0 711 0C663.7 0 616.3 0 569 0C521.7 0 474.3 0 426.8 0C379.3 0 331.7 0 284.2 0C236.7 0 189.3 0 142 0C94.7 0 47.3 0 23.7 0L0 0Z" fill="#1a3c40"></path><path d="M0 177L23.7 177.7C47.3 178.3 94.7 179.7 142 181.2C189.3 182.7 236.7 184.3 284.2 167.2C331.7 150 379.3 114 426.8 117.7C474.3 121.3 521.7 164.7 569 180.3C616.3 196 663.7 184 711 178C758.3 172 805.7 172 853.2 163.8C900.7 155.7 948.3 139.3 995.8 130.3C1043.3 121.3 1090.7 119.7 1138 127.8C1185.3 136 1232.7 154 1280 172.8C1327.3 191.7 1374.7 211.3 1422 215.8C1469.3 220.3 1516.7 209.7 1564.2 184.2C1611.7 158.7 1659.3 118.3 1706.8 112.3C1754.3 106.3 1801.7 134.7 1849 154.8C1896.3 175 1943.7 187 1991 180.3C2038.3 173.7 2085.7 148.3 2133.2 134.8C2180.7 121.3 2228.3 119.7 2275.8 115.2C2323.3 110.7 2370.7 103.3 2418 98.8C2465.3 94.3 2512.7 92.7 2536.3 91.8L2560 91L2560 22L2536.3 23.5C2512.7 25 2465.3 28 2418 30.2C2370.7 32.3 2323.3 33.7 2275.8 35.2C2228.3 36.7 2180.7 38.3 2133.2 43.7C2085.7 49 2038.3 58 1991 55C1943.7 52 1896.3 37 1849 31C1801.7 25 1754.3 28 1706.8 30.2C1659.3 32.3 1611.7 33.7 1564.2 41.2C1516.7 48.7 1469.3 62.3 1422 61.7C1374.7 61 1327.3 46 1280 37C1232.7 28 1185.3 25 1138 28C1090.7 31 1043.3 40 995.8 45.2C948.3 50.3 900.7 51.7 853.2 53.2C805.7 54.7 758.3 56.3 711 57.8C663.7 59.3 616.3 60.7 569 53.8C521.7 47 474.3 32 426.8 28.3C379.3 24.7 331.7 32.3 284.2 40.7C236.7 49 189.3 58 142 60.2C94.7 62.3 47.3 57.7 23.7 55.3L0 53Z" fill="#21494c"></path><path d="M0 330L23.7 320.2C47.3 310.3 94.7 290.7 142 284.7C189.3 278.7 236.7 286.3 284.2 287.2C331.7 288 379.3 282 426.8 278.2C474.3 274.3 521.7 272.7 569 273.3C616.3 274 663.7 277 711 274C758.3 271 805.7 262 853.2 270.3C900.7 278.7 948.3 304.3 995.8 305.8C1043.3 307.3 1090.7 284.7 1138 274.2C1185.3 263.7 1232.7 265.3 1280 278.2C1327.3 291 1374.7 315 1422 318C1469.3 321 1516.7 303 1564.2 292.5C1611.7 282 1659.3 279 1706.8 271.5C1754.3 264 1801.7 252 1849 246.7C1896.3 241.3 1943.7 242.7 1991 243.3C2038.3 244 2085.7 244 2133.2 246.3C2180.7 248.7 2228.3 253.3 2275.8 255.7C2323.3 258 2370.7 258 2418 261C2465.3 264 2512.7 270 2536.3 273L2560 276L2560 89L2536.3 89.8C2512.7 90.7 2465.3 92.3 2418 96.8C2370.7 101.3 2323.3 108.7 2275.8 113.2C2228.3 117.7 2180.7 119.3 2133.2 132.8C2085.7 146.3 2038.3 171.7 1991 178.3C1943.7 185 1896.3 173 1849 152.8C1801.7 132.7 1754.3 104.3 1706.8 110.3C1659.3 116.3 1611.7 156.7 1564.2 182.2C1516.7 207.7 1469.3 218.3 1422 213.8C1374.7 209.3 1327.3 189.7 1280 170.8C1232.7 152 1185.3 134 1138 125.8C1090.7 117.7 1043.3 119.3 995.8 128.3C948.3 137.3 900.7 153.7 853.2 161.8C805.7 170 758.3 170 711 176C663.7 182 616.3 194 569 178.3C521.7 162.7 474.3 119.3 426.8 115.7C379.3 112 331.7 148 284.2 165.2C236.7 182.3 189.3 180.7 142 179.2C94.7 177.7 47.3 176.3 23.7 175.7L0 175Z" fill="#285557"></path><path d="M0 357L23.7 354.7C47.3 352.3 94.7 347.7 142 342.3C189.3 337 236.7 331 284.2 324.3C331.7 317.7 379.3 310.3 426.8 320.8C474.3 331.3 521.7 359.7 569 367.2C616.3 374.7 663.7 361.3 711 352.3C758.3 343.3 805.7 338.7 853.2 343.8C900.7 349 948.3 364 995.8 370C1043.3 376 1090.7 373 1138 370C1185.3 367 1232.7 364 1280 367C1327.3 370 1374.7 379 1422 371.5C1469.3 364 1516.7 340 1564.2 337.8C1611.7 335.7 1659.3 355.3 1706.8 355.3C1754.3 355.3 1801.7 335.7 1849 328.2C1896.3 320.7 1943.7 325.3 1991 334.3C2038.3 343.3 2085.7 356.7 2133.2 359.7C2180.7 362.7 2228.3 355.3 2275.8 355.3C2323.3 355.3 2370.7 362.7 2418 367.2C2465.3 371.7 2512.7 373.3 2536.3 374.2L2560 375L2560 274L2536.3 271C2512.7 268 2465.3 262 2418 259C2370.7 256 2323.3 256 2275.8 253.7C2228.3 251.3 2180.7 246.7 2133.2 244.3C2085.7 242 2038.3 242 1991 241.3C1943.7 240.7 1896.3 239.3 1849 244.7C1801.7 250 1754.3 262 1706.8 269.5C1659.3 277 1611.7 280 1564.2 290.5C1516.7 301 1469.3 319 1422 316C1374.7 313 1327.3 289 1280 276.2C1232.7 263.3 1185.3 261.7 1138 272.2C1090.7 282.7 1043.3 305.3 995.8 303.8C948.3 302.3 900.7 276.7 853.2 268.3C805.7 260 758.3 269 711 272C663.7 275 616.3 272 569 271.3C521.7 270.7 474.3 272.3 426.8 276.2C379.3 280 331.7 286 284.2 285.2C236.7 284.3 189.3 276.7 142 282.7C94.7 288.7 47.3 308.3 23.7 318.2L0 328Z" fill="#306263"></path><path d="M0 433L23.7 429.3C47.3 425.7 94.7 418.3 142 416.2C189.3 414 236.7 417 284.2 412.5C331.7 408 379.3 396 426.8 397.5C474.3 399 521.7 414 569 418.5C616.3 423 663.7 417 711 409.5C758.3 402 805.7 393 853.2 393C900.7 393 948.3 402 995.8 403.5C1043.3 405 1090.7 399 1138 398.2C1185.3 397.3 1232.7 401.7 1280 405.3C1327.3 409 1374.7 412 1422 409.8C1469.3 407.7 1516.7 400.3 1564.2 398.2C1611.7 396 1659.3 399 1706.8 402C1754.3 405 1801.7 408 1849 406.5C1896.3 405 1943.7 399 1991 398.2C2038.3 397.3 2085.7 401.7 2133.2 404.7C2180.7 407.7 2228.3 409.3 2275.8 410.2C2323.3 411 2370.7 411 2418 409.5C2465.3 408 2512.7 405 2536.3 403.5L2560 402L2560 373L2536.3 372.2C2512.7 371.3 2465.3 369.7 2418 365.2C2370.7 360.7 2323.3 353.3 2275.8 353.3C2228.3 353.3 2180.7 360.7 2133.2 357.7C2085.7 354.7 2038.3 341.3 1991 332.3C1943.7 323.3 1896.3 318.7 1849 326.2C1801.7 333.7 1754.3 353.3 1706.8 353.3C1659.3 353.3 1611.7 333.7 1564.2 335.8C1516.7 338 1469.3 362 1422 369.5C1374.7 377 1327.3 368 1280 365C1232.7 362 1185.3 365 1138 368C1090.7 371 1043.3 374 995.8 368C948.3 362 900.7 347 853.2 341.8C805.7 336.7 758.3 341.3 711 350.3C663.7 359.3 616.3 372.7 569 365.2C521.7 357.7 474.3 329.3 426.8 318.8C379.3 308.3 331.7 315.7 284.2 322.3C236.7 329 189.3 335 142 340.3C94.7 345.7 47.3 350.3 23.7 352.7L0 355Z" fill="#38706e"></path><path d="M0 451L23.7 451C47.3 451 94.7 451 142 451C189.3 451 236.7 451 284.2 451C331.7 451 379.3 451 426.8 451C474.3 451 521.7 451 569 451C616.3 451 663.7 451 711 451C758.3 451 805.7 451 853.2 451C900.7 451 948.3 451 995.8 451C1043.3 451 1090.7 451 1138 451C1185.3 451 1232.7 451 1280 451C1327.3 451 1374.7 451 1422 451C1469.3 451 1516.7 451 1564.2 451C1611.7 451 1659.3 451 1706.8 451C1754.3 451 1801.7 451 1849 451C1896.3 451 1943.7 451 1991 451C2038.3 451 2085.7 451 2133.2 451C2180.7 451 2228.3 451 2275.8 451C2323.3 451 2370.7 451 2418 451C2465.3 451 2512.7 451 2536.3 451L2560 451L2560 400L2536.3 401.5C2512.7 403 2465.3 406 2418 407.5C2370.7 409 2323.3 409 2275.8 408.2C2228.3 407.3 2180.7 405.7 2133.2 402.7C2085.7 399.7 2038.3 395.3 1991 396.2C1943.7 397 1896.3 403 1849 404.5C1801.7 406 1754.3 403 1706.8 400C1659.3 397 1611.7 394 1564.2 396.2C1516.7 398.3 1469.3 405.7 1422 407.8C1374.7 410 1327.3 407 1280 403.3C1232.7 399.7 1185.3 395.3 1138 396.2C1090.7 397 1043.3 403 995.8 401.5C948.3 400 900.7 391 853.2 391C805.7 391 758.3 400 711 407.5C663.7 415 616.3 421 569 416.5C521.7 412 474.3 397 426.8 395.5C379.3 394 331.7 406 284.2 410.5C236.7 415 189.3 412 142 414.2C94.7 416.3 47.3 423.7 23.7 427.3L0 431Z" fill="#417d7a"></path></svg>