<svg id="visual" viewBox="0 0 2560 200" width="2560" height="200" xmlns="http://www.w3.org/2000/svg" xmlns:xlink="http://www.w3.org/1999/xlink" version="1.1" preserveAspectRatio="none"><path d="M0 45L32.8 47C65.7 49 131.3 53 197 57.3C262.7 61.7 328.3 66.3 394 61.3C459.7 56.3 525.3 41.7 591 37C656.7 32.3 722.3 37.7 788 41C853.7 44.3 919.3 45.7 985 45C1050.7 44.3 1116.3 41.7 1181.8 44.7C1247.3 47.7 1312.7 56.3 1378.2 59C1443.7 61.7 1509.3 58.3 1575 59C1640.7 59.7 1706.3 64.3 1772 63C1837.7 61.7 1903.3 54.3 1969 48.7C2034.7 43 2100.3 39 2166 40C2231.7 41 2297.3 47 2363 48C2428.7 49 2494.3 45 2527.2 43L2560 41L2560 0L2527.2 0C2494.3 0 2428.7 0 2363 0C2297.3 0 2231.7 0 2166 0C2100.3 0 2034.7 0 1969 0C1903.3 0 1837.7 0 1772 0C1706.3 0 1640.7 0 1575 0C1509.3 0 1443.7 0 1378.2 0C1312.7 0 1247.3 0 1181.8 0C1116.3 0 1050.7 0 985 0C919.3 0 853.7 0 788 0C722.3 0 656.7 0 591 0C525.3 0 459.7 0 394 0C328.3 0 262.7 0 197 0C131.3 0 65.7 0 32.8 0L0 0Z" fill="#417d7a"></path><path d="M0 65L32.8 66.7C65.7 68.3 131.3 71.7 197 74.3C262.7 77 328.3 79 394 74C459.7 69 525.3 57 591 53C656.7 49 722.3 53 788 56C853.7 59 919.3 61 985 62C1050.7 63 1116.3 63 1181.8 65.7C1247.3 68.3 1312.7 73.7 1378.2 74.3C1443.7 75 1509.3 71 1575 71.3C1640.7 71.7 1706.3 76.3 1772 77.7C1837.7 79 1903.3 77 1969 73C2034.7 69 2100.3 63 2166 61.7C2231.7 60.3 2297.3 63.7 2363 65C2428.7 66.3 2494.3 65.7 2527.2 65.3L2560 65L2560 39L2527.2 41C2494.3 43 2428.7 47 2363 46C2297.3 45 2231.7 39 2166 38C2100.3 37 2034.7 41 1969 46.7C1903.3 52.3 1837.7 59.7 1772 61C1706.3 62.3 1640.7 57.7 1575 57C1509.3 56.3 1443.7 59.7 1378.2 57C1312.7 54.3 1247.3 45.7 1181.8 42.7C1116.3 39.7 1050.7 42.3 985 43C919.3 43.7 853.7 42.3 788 39C722.3 35.7 656.7 30.3 591 35C525.3 39.7 459.7 54.3 394 59.3C328.3 64.3 262.7 59.7 197 55.3C131.3 51 65.7 47 32.8 45L0 43Z" fill="#689284"></path><path d="M0 103L32.8 103C65.7 103 131.3 103 197 102C262.7 101 328.3 99 394 97.3C459.7 95.7 525.3 94.3 591 91C656.7 87.7 722.3 82.3 788 81C853.7 79.7 919.3 82.3 985 86.7C1050.7 91 1116.3 97 1181.8 102.7C1247.3 108.3 1312.7 113.7 1378.2 115.3C1443.7 117 1509.3 115 1575 113.3C1640.7 111.7 1706.3 110.3 1772 108.7C1837.7 107 1903.3 105 1969 99C2034.7 93 2100.3 83 2166 80C2231.7 77 2297.3 81 2363 85.3C2428.7 89.7 2494.3 94.3 2527.2 96.7L2560 99L2560 63L2527.2 63.3C2494.3 63.7 2428.7 64.3 2363 63C2297.3 61.7 2231.7 58.3 2166 59.7C2100.3 61 2034.7 67 1969 71C1903.3 75 1837.7 77 1772 75.7C1706.3 74.3 1640.7 69.7 1575 69.3C1509.3 69 1443.7 73 1378.2 72.3C1312.7 71.7 1247.3 66.3 1181.8 63.7C1116.3 61 1050.7 61 985 60C919.3 59 853.7 57 788 54C722.3 51 656.7 47 591 51C525.3 55 459.7 67 394 72C328.3 77 262.7 75 197 72.3C131.3 69.7 65.7 66.3 32.8 64.7L0 63Z" fill="#8da692"></path><path d="M0 125L32.8 125.7C65.7 126.3 131.3 127.7 197 125.7C262.7 123.7 328.3 118.3 394 116.3C459.7 114.3 525.3 115.7 591 114.3C656.7 113 722.3 109 788 106C853.7 103 919.3 101 985 103.7C1050.7 106.3 1116.3 113.7 1181.8 121C1247.3 128.3 1312.7 135.7 1378.2 138C1443.7 140.3 1509.3 137.7 1575 136.3C1640.7 135 1706.3 135 1772 134C1837.7 133 1903.3 131 1969 124C2034.7 117 2100.3 105 2166 102C2231.7 99 2297.3 105 2363 108.7C2428.7 112.3 2494.3 113.7 2527.2 114.3L2560 115L2560 97L2527.2 94.7C2494.3 92.3 2428.7 87.7 2363 83.3C2297.3 79 2231.7 75 2166 78C2100.3 81 2034.7 91 1969 97C1903.3 103 1837.7 105 1772 106.7C1706.3 108.3 1640.7 109.7 1575 111.3C1509.3 113 1443.7 115 1378.2 113.3C1312.7 111.7 1247.3 106.3 1181.8 100.7C1116.3 95 1050.7 89 985 84.7C919.3 80.3 853.7 77.7 788 79C722.3 80.3 656.7 85.7 591 89C525.3 92.3 459.7 93.7 394 95.3C328.3 97 262.7 99 197 100C131.3 101 65.7 101 32.8 101L0 101Z" fill="#b0baa6"></path><path d="M0 185L32.8 185.3C65.7 185.7 131.3 186.3 197 183C262.7 179.7 328.3 172.3 394 171.7C459.7 171 525.3 177 591 180.7C656.7 184.3 722.3 185.7 788 186C853.7 186.3 919.3 185.7 985 185.7C1050.7 185.7 1116.3 186.3 1181.8 182.7C1247.3 179 1312.7 171 1378.2 167C1443.7 163 1509.3 163 1575 166.3C1640.7 169.7 1706.3 176.3 1772 178.3C1837.7 180.3 1903.3 177.7 1969 177.7C2034.7 177.7 2100.3 180.3 2166 178.7C2231.7 177 2297.3 171 2363 167.7C2428.7 164.3 2494.3 163.7 2527.2 163.3L2560 163L2560 113L2527.2 112.3C2494.3 111.7 2428.7 110.3 2363 106.7C2297.3 103 2231.7 97 2166 100C2100.3 103 2034.7 115 1969 122C1903.3 129 1837.7 131 1772 132C1706.3 133 1640.7 133 1575 134.3C1509.3 135.7 1443.7 138.3 1378.2 136C1312.7 133.7 1247.3 126.3 1181.8 119C1116.3 111.7 1050.7 104.3 985 101.7C919.3 99 853.7 101 788 104C722.3 107 656.7 111 591 112.3C525.3 113.7 459.7 112.3 394 114.3C328.3 116.3 262.7 121.7 197 123.7C131.3 125.7 65.7 124.3 32.8 123.7L0 123Z" fill="#d1cfbe"></path><path d="M0 201L32.8 201C65.7 201 131.3 201 197 201C262.7 201 328.3 201 394 201C459.7 201 525.3 201 591 201C656.7 201 722.3 201 788 201C853.7 201 919.3 201 985 201C1050.7 201 1116.3 201 1181.8 201C1247.3 201 1312.7 201 1378.2 201C1443.7 201 1509.3 201 1575 201C1640.7 201 1706.3 201 1772 201C1837.7 201 1903.3 201 1969 201C2034.7 201 2100.3 201 2166 201C2231.7 201 2297.3 201 2363 201C2428.7 201 2494.3 201 2527.2 201L2560 201L2560 161L2527.2 161.3C2494.3 161.7 2428.7 162.3 2363 165.7C2297.3 169 2231.7 175 2166 176.7C2100.3 178.3 2034.7 175.7 1969 175.7C1903.3 175.7 1837.7 178.3 1772 176.3C1706.3 174.3 1640.7 167.7 1575 164.3C1509.3 161 1443.7 161 1378.2 165C1312.7 169 1247.3 177 1181.8 180.7C1116.3 184.3 1050.7 183.7 985 183.7C919.3 183.7 853.7 184.3 788 184C722.3 183.7 656.7 182.3 591 178.7C525.3 175 459.7 169 394 169.7C328.3 170.3 262.7 177.7 197 181C131.3 184.3 65.7 183.7 32.8 183.3L0 183Z" fill="#ede6db"></path></svg>